<?xml version="1.0" standalone="no"?>
<!DOCTYPE svg PUBLIC "-//W3C//DTD SVG 20010904//EN"
 "http://www.w3.org/TR/2001/REC-SVG-20010904/DTD/svg10.dtd">
<svg version="1.0" xmlns="http://www.w3.org/2000/svg"
 width="168.000000pt" height="100.000000pt" viewBox="0 0 168.000000 100.000000"
 preserveAspectRatio="xMidYMid meet">

<g transform="translate(0.000000,100.000000) scale(0.100000,-0.100000)"
fill="#000000" stroke="none">
<path d="M1098 753 c6 -2 18 -2 25 0 6 3 1 5 -13 5 -14 0 -19 -2 -12 -5z"/>
<path d="M892 714 c-32 -25 -37 -26 -185 -27 l-152 -1 144 -3 144 -4 -33 -34
-34 -35 -115 -2 -116 -2 108 -3 c59 -2 107 -7 107 -10 0 -4 -12 -20 -27 -36
l-28 -29 49 26 c58 31 80 32 123 8 98 -54 133 -72 140 -72 4 1 -18 14 -49 31
-65 33 -73 42 -26 28 55 -15 56 -9 3 11 l-50 18 60 -4 60 -3 -55 12 -55 12 80
6 80 5 -80 3 c-44 2 -71 6 -60 8 17 5 15 7 -10 18 -17 8 -24 14 -16 14 11 1
10 5 -5 16 -15 12 -16 14 -2 9 13 -4 16 -1 14 13 -3 13 2 19 17 20 22 2 22 2
3 -13 -14 -10 -16 -14 -5 -14 12 0 12 -2 -1 -10 -25 -16 3 -11 30 6 l25 15
-25 -6 c-24 -6 -24 -5 -6 9 11 9 14 16 7 16 -7 0 -9 4 -6 10 4 6 -1 7 -11 3
-12 -4 -15 -3 -10 5 10 17 5 15 -32 -14z"/>
<path d="M1000 730 c-8 -5 -10 -10 -5 -10 6 0 17 5 25 10 8 5 11 10 5 10 -5 0
-17 -5 -25 -10z"/>
<path d="M1068 713 c7 -3 16 -2 19 1 4 3 -2 6 -13 5 -11 0 -14 -3 -6 -6z"/>
<path d="M1028 673 c7 -3 16 -2 19 1 4 3 -2 6 -13 5 -11 0 -14 -3 -6 -6z"/>
<path d="M978 663 c7 -3 16 -2 19 1 4 3 -2 6 -13 5 -11 0 -14 -3 -6 -6z"/>
<path d="M613 653 c37 -2 97 -2 135 0 37 2 6 3 -68 3 -74 0 -105 -1 -67 -3z"/>
<path d="M963 633 c9 -2 23 -2 30 0 6 3 -1 5 -18 5 -16 0 -22 -2 -12 -5z"/>
<path d="M1108 593 c7 -3 16 -2 19 1 4 3 -2 6 -13 5 -11 0 -14 -3 -6 -6z"/>
<path d="M1038 563 c7 -3 16 -2 19 1 4 3 -2 6 -13 5 -11 0 -14 -3 -6 -6z"/>
<path d="M1088 553 c7 -3 16 -2 19 1 4 3 -2 6 -13 5 -11 0 -14 -3 -6 -6z"/>
<path d="M588 523 c23 -2 59 -2 80 0 20 2 1 4 -43 4 -44 0 -61 -2 -37 -4z"/>
<path d="M1038 523 c7 -3 16 -2 19 1 4 3 -2 6 -13 5 -11 0 -14 -3 -6 -6z"/>
<path d="M949 496 c19 -23 100 -70 108 -62 4 3 2 6 -4 6 -6 0 -35 17 -64 37
-30 20 -48 29 -40 19z"/>
<path d="M578 473 c18 -2 45 -2 60 0 15 2 0 4 -33 4 -33 0 -45 -2 -27 -4z"/>
<path d="M573 443 c15 -2 37 -2 50 0 12 2 0 4 -28 4 -27 0 -38 -2 -22 -4z"/>
<path d="M1007 409 c7 -7 15 -10 18 -7 3 3 -2 9 -12 12 -14 6 -15 5 -6 -5z"/>
<path d="M806 385 c-3 -9 1 -18 10 -22 19 -7 28 2 21 22 -8 19 -23 19 -31 0z"/>
<path d="M1380 280 c0 -91 3 -110 15 -110 12 0 15 19 15 110 0 91 -3 110 -15
110 -12 0 -15 -19 -15 -110z"/>
<path d="M318 333 c-28 -4 -28 -5 -28 -84 0 -64 3 -79 15 -79 11 0 15 13 15
54 0 45 4 58 22 70 15 11 26 12 40 5 14 -8 18 -22 18 -69 0 -47 3 -60 15 -60
11 0 15 12 15 50 0 36 5 55 20 70 37 37 70 -1 70 -81 0 -21 5 -39 10 -39 17 0
12 126 -5 144 -24 24 -53 28 -84 13 -23 -12 -31 -12 -46 0 -19 13 -26 14 -77
6z"/>
<path d="M634 330 c-59 -24 -70 -95 -24 -142 26 -26 36 -29 63 -23 18 3 44 6
60 6 l27 0 0 79 0 79 -27 0 c-16 -1 -39 2 -53 5 -14 3 -35 1 -46 -4z m64 -36
c40 -28 18 -104 -30 -104 -24 0 -58 35 -58 60 0 22 33 60 53 60 7 0 23 -7 35
-16z"/>
<path d="M925 328 c-33 -17 -45 -40 -45 -80 0 -64 60 -103 121 -78 35 15 49
37 49 79 0 43 -9 60 -41 76 -33 18 -57 18 -84 3z m73 -34 c41 -28 18 -104 -31
-104 -53 0 -77 75 -35 104 12 9 27 16 33 16 6 0 21 -7 33 -16z"/>
<path d="M1141 331 c-7 -5 -22 -6 -32 -4 -17 5 -19 -1 -19 -76 0 -65 3 -81 15
-81 11 0 15 13 15 54 0 52 16 86 41 86 5 0 9 7 9 15 0 17 -9 19 -29 6z"/>
<path d="M1199 311 c-20 -20 -29 -39 -29 -61 0 -42 47 -90 88 -90 32 0 82 33
69 46 -4 4 -18 2 -31 -5 -32 -17 -66 -11 -84 17 l-14 22 76 0 c42 0 76 2 76 5
0 3 -7 21 -15 40 -24 60 -89 72 -136 26z m99 -13 c26 -26 13 -38 -38 -38 -34
0 -50 4 -50 13 0 21 22 37 50 37 14 0 31 -5 38 -12z"/>
<path d="M810 235 c0 -76 -3 -97 -15 -101 -19 -8 -20 -34 -2 -34 8 0 21 8 30
18 24 26 25 212 2 212 -12 0 -15 -17 -15 -95z"/>
</g>
</svg>
