<?xml version="1.0" standalone="no"?>
<!DOCTYPE svg PUBLIC "-//W3C//DTD SVG 20010904//EN"
 "http://www.w3.org/TR/2001/REC-SVG-20010904/DTD/svg10.dtd">
<svg version="1.0" xmlns="http://www.w3.org/2000/svg"
 width="65.000000pt" height="75.000000pt" viewBox="0 0 65.000000 75.000000"
 preserveAspectRatio="xMidYMid meet">

<g transform="translate(0.000000,75.000000) scale(0.100000,-0.100000)"
fill="#000000" stroke="none">
<path d="M0 375 l0 -375 325 0 325 0 0 375 0 375 -325 0 -325 0 0 -375z m505
210 l40 -20 0 -136 c-1 -128 -2 -137 -28 -181 -26 -45 -99 -103 -144 -114 -28
-8 -115 39 -153 83 -40 45 -50 90 -50 230 l0 121 43 16 c23 8 49 17 57 20 8 3
56 4 105 3 65 -2 101 -8 130 -22z"/>
<path d="M301 557 c-6 -6 -11 -24 -11 -39 l0 -28 70 0 70 0 0 29 c0 16 -6 33
-12 38 -18 14 -103 14 -117 0z m49 -27 c0 -23 -4 -30 -20 -30 -16 0 -20 7 -20
30 0 23 4 30 20 30 16 0 20 -7 20 -30z m60 0 c0 -25 -4 -30 -25 -30 -20 0 -25
5 -25 23 0 28 7 37 32 37 13 0 18 -8 18 -30z"/>
<path d="M325 420 l-29 -30 -23 22 -23 21 -25 -23 c-14 -13 -25 -26 -25 -29 0
-3 72 -6 160 -6 88 0 160 2 160 6 0 3 -11 16 -25 29 l-25 23 -23 -21 -23 -22
-29 30 c-16 17 -32 30 -35 30 -3 0 -19 -13 -35 -30z"/>
<path d="M220 342 c-13 -5 -13 -38 1 -65 21 -41 52 -67 71 -61 13 4 18 0 18
-14 0 -11 7 -23 16 -26 24 -9 29 -7 16 6 -21 21 -13 35 18 35 35 0 36 -4 13
-30 -17 -19 -17 -19 2 -16 11 2 24 14 30 26 6 15 16 21 26 18 31 -10 98 100
75 123 -7 6 -267 10 -286 4z m90 -37 c0 -7 -7 -18 -15 -25 -12 -10 -18 -10
-30 0 -24 20 -17 37 15 37 17 0 30 -6 30 -12z m80 5 c0 -3 -6 -15 -14 -25 -12
-16 -16 -17 -30 -6 -25 21 -19 38 14 38 17 0 30 -3 30 -7z m80 0 c0 -3 -6 -15
-14 -25 -12 -16 -16 -17 -30 -6 -25 21 -19 38 14 38 17 0 30 -3 30 -7z m-160
-55 c0 -7 -7 -18 -15 -25 -12 -10 -18 -10 -30 0 -24 20 -17 37 15 37 17 0 30
-6 30 -12z m80 5 c0 -3 -6 -15 -14 -25 -12 -16 -16 -17 -30 -6 -25 21 -19 38
14 38 17 0 30 -3 30 -7z m80 0 c0 -4 -8 -14 -18 -23 -14 -13 -21 -14 -30 -5
-21 21 -13 35 18 35 17 0 30 -3 30 -7z"/>
</g>
</svg>
