<?xml version="1.0" standalone="yes"?>
<svg xmlns="http://www.w3.org/2000/svg" width="65" height="75">
<path style="fill:#255333; stroke:none;" d="M0 0L0 75L65 75L65 0L0 0z"/>
<path style="fill:#4f765c; stroke:none;" d="M27 14L28 15L27 14z"/>
<path style="fill:#7a9985; stroke:none;" d="M28.6667 14.3333L29.3333 14.6667L28.6667 14.3333z"/>
<path style="fill:#b0c3b7; stroke:none;" d="M30 14L30 15L33 15L30 14z"/>
<path style="fill:#fcfdfc; stroke:none;" d="M33 14.4259C28.4876 15.0184 20.8096 15.1 18.0278 19.3943C10.4882 31.0333 20.1674 63.263 37 60.9977C52.3817 58.9276 54 43.039 54 31C54 27.6048 55.1338 21.584 52.9722 18.7022C49.5237 14.1046 38.0883 13.7578 33 14.4259z"/>
<path style="fill:#b0c3b7; stroke:none;" d="M40 14L40 15L43 15L40 14z"/>
<path style="fill:#7a9985; stroke:none;" d="M43 14L44 15L43 14z"/>
<path style="fill:#4f765c; stroke:none;" d="M44 14L45 15L44 14M23 15L24 16L23 15z"/>
<path style="fill:#7a9985; stroke:none;" d="M24 15L25 16L24 15z"/>
<path style="fill:#b0c3b7; stroke:none;" d="M25 15L26 16L25 15M46 15L47 16L46 15z"/>
<path style="fill:#7a9985; stroke:none;" d="M47 15L48 16L47 15z"/>
<path style="fill:#4f765c; stroke:none;" d="M48 15L49 16L48 15M20 16L21 17L20 16z"/>
<path style="fill:#7a9985; stroke:none;" d="M21 16L22 17L21 16z"/>
<path style="fill:#b0c3b7; stroke:none;" d="M49 16L50 17L49 16z"/>
<path style="fill:#7a9985; stroke:none;" d="M50 16L51 17L50 16z"/>
<path style="fill:#4f765c; stroke:none;" d="M18 17L19 18L18 17z"/>
<path style="fill:#b0c3b7; stroke:none;" d="M19 17L20 18L19 17M52 17L53 18L52 17z"/>
<path style="fill:#4f765c; stroke:none;" d="M53 17L54 18L53 17z"/>
<path style="fill:#b0c3b7; stroke:none;" d="M17 18L18 19L17 18z"/>
<path style="fill:#7a9985; stroke:none;" d="M30 18L33 20L33 19L30 18z"/>
<path style="fill:#4f765c; stroke:none;" d="M31 18L31 19L35 19L31 18z"/>
<path style="fill:#7a9985; stroke:none;" d="M34 19L34 20L37 19L36 25L37 25L37 20L41 20L34 19z"/>
<path style="fill:#4f765c; stroke:none;" d="M37 18L38 19L37 18z"/>
<path style="fill:#255333; stroke:none;" d="M38 18L39 19L38 18z"/>
<path style="fill:#4f765c; stroke:none;" d="M39.6667 18.3333L40.3333 18.6667L39.6667 18.3333z"/>
<path style="fill:#b0c3b7; stroke:none;" d="M41 18L43 26L44 26L41 18z"/>
<path style="fill:#4f765c; stroke:none;" d="M54 18L55 19L54 18z"/>
<path style="fill:#b0c3b7; stroke:none;" d="M29 19L28 26L29 26L29 19z"/>
<path style="fill:#255333; stroke:none;" d="M30 19L29 26L43 26L42 19L41 19L41 25L31 25L30 19z"/>
<path style="fill:#b0c3b7; stroke:none;" d="M33 19L34 20L33 19z"/>
<path style="fill:#255333; stroke:none;" d="M35 19L36 20L35 19z"/>
<path style="fill:#4f765c; stroke:none;" d="M36 19L37 20L36 19z"/>
<path style="fill:#7a9985; stroke:none;" d="M54 19L54 41L55 41L54 19z"/>
<path style="fill:#fcfdfc; stroke:none;" d="M31 20L31 24L35 24L35 20L31 20z"/>
<path style="fill:#4f765c; stroke:none;" d="M35 20L35 25L36 25L35 20z"/>
<path style="fill:#fcfdfc; stroke:none;" d="M37 20L37 24L41 24L41 20L37 20z"/>
<path style="fill:#b0c3b7; stroke:none;" d="M31 24L31 25L35 25L31 24M37 24L37 25L41 25L37 24z"/>
<path style="fill:#7a9985; stroke:none;" d="M29 26L29 27L43 27L29 26M31 34L40 33C36.5544 29.0215 34.0219 30.0835 31 34z"/>
<path style="fill:#255333; stroke:none;" d="M30 36L29 36C25.5143 31.9713 22.4551 33.0023 21 38L51 38C49.5449 33.0023 46.4857 31.9713 43 36C37.8514 31.0366 34.5868 29.7228 30 36z"/>
<path style="fill:#b0c3b7; stroke:none;" d="M24.6667 31.3333L25.3333 31.6667L24.6667 31.3333M46.6667 31.3333L47.3333 31.6667L46.6667 31.3333M23 32L24 33L23 32M26 32L27 33L26 32M45 32L46 33L45 32M48 32L49 33L48 32M22 33L23 34L22 33M27 33L28 34L27 33M40 33L41 34L40 33M44 33L45 34L44 33M49 33L50 34L49 33M21 34L22 35L21 34M28 34L29 35L28 34M30 34L31 35L30 34M41 34L42 35L41 34M43 34L44 35L43 34M50 34L51 35L50 34M20 35L21 36L20 35z"/>
<path style="fill:#7a9985; stroke:none;" d="M29 35L30 36L29 35M42 35L43 36L42 35z"/>
<path style="fill:#b0c3b7; stroke:none;" d="M51 35L52 36L51 35z"/>
<path style="fill:#4f765c; stroke:none;" d="M20.3333 36.6667L20.6667 37.3333L20.3333 36.6667M51.3333 36.6667L51.6667 37.3333L51.3333 36.6667z"/>
<path style="fill:#7a9985; stroke:none;" d="M22 37L23 38L22 37z"/>
<path style="fill:#b0c3b7; stroke:none;" d="M23 37L24 38L23 37M26 37L27 38L26 37z"/>
<path style="fill:#7a9985; stroke:none;" d="M27 37L28 38L27 37M33 37L34 38L33 37z"/>
<path style="fill:#b0c3b7; stroke:none;" d="M34 37L35 38L34 37M37 37L38 38L37 37z"/>
<path style="fill:#7a9985; stroke:none;" d="M38 37L39 38L38 37M44 37L45 38L44 37z"/>
<path style="fill:#b0c3b7; stroke:none;" d="M45 37L46 38L45 37M47.6667 37.3333L48.3333 37.6667L47.6667 37.3333z"/>
<path style="fill:#4f765c; stroke:none;" d="M49 37L50 38L49 37z"/>
<path style="fill:#b0c3b7; stroke:none;" d="M20 38L21 39L20 38M29 38L30 39L29 38z"/>
<path style="fill:#7a9985; stroke:none;" d="M30 38L31 39L30 38z"/>
<path style="fill:#b0c3b7; stroke:none;" d="M31 38L32 39L31 38M40 38L41 39L40 38z"/>
<path style="fill:#7a9985; stroke:none;" d="M41 38L42 39L41 38z"/>
<path style="fill:#b0c3b7; stroke:none;" d="M42 38L43 39L42 38M51 38L52 39L51 38M24.6667 39.3333L25.3333 39.6667L24.6667 39.3333M35.6667 39.3333L36.3333 39.6667L35.6667 39.3333M46.6667 39.3333L47.3333 39.6667L46.6667 39.3333M21 40L22 41L21 40z"/>
<path style="fill:#7a9985; stroke:none;" d="M22 40L23 41L22 40z"/>
<path style="fill:#255333; stroke:none;" d="M31 53L35 58L33 53L39 53L37 58L41 53L47 51C43.6378 51.5125 42.6071 50.9953 41 48L48 50L51 41C44.4153 39.5717 37.1166 40.9717 30.4244 40.9722C27.9646 40.9724 24.8193 39.4543 22.6188 41.1937C17.3209 45.3816 26.6001 53.3719 31 53z"/>
<path style="fill:#7a9985; stroke:none;" d="M27 40L28 41L27 40z"/>
<path style="fill:#b0c3b7; stroke:none;" d="M32 40L33 41L32 40z"/>
<path style="fill:#7a9985; stroke:none;" d="M33 40L34 41L33 40M38 40L39 41L38 40z"/>
<path style="fill:#b0c3b7; stroke:none;" d="M43 40L44 41L43 40z"/>
<path style="fill:#7a9985; stroke:none;" d="M44 40L45 41L44 40M49 40L50 41L49 40z"/>
<path style="fill:#b0c3b7; stroke:none;" d="M17.3333 41.6667L17.6667 42.3333L17.3333 41.6667z"/>
<path style="fill:#7a9985; stroke:none;" d="M20.3333 41.6667L20.6667 42.3333L20.3333 41.6667z"/>
<path style="fill:#4f765c; stroke:none;" d="M30 41L31 42L30 41M41 41L42 42L41 41z"/>
<path style="fill:#7a9985; stroke:none;" d="M51 41L52 42L51 41z"/>
<path style="fill:#4f765c; stroke:none;" d="M54.3333 41.6667L54.6667 42.3333L54.3333 41.6667z"/>
<path style="fill:#b0c3b7; stroke:none;" d="M51 42L52 43L51 42z"/>
<path style="fill:#7a9985; stroke:none;" d="M17 43L18 44L17 43z"/>
<path style="fill:#b0c3b7; stroke:none;" d="M20 43L21 44L20 43M25 43L25 44L25 45L31 45L31 44L31 43L25 43M33 43L35 47L33 50L38 49L38 48L35 49L34 44L38 44L33 43z"/>
<path style="fill:#7a9985; stroke:none;" d="M38.3333 43.6667L38.6667 44.3333L38.3333 43.6667z"/>
<path style="fill:#b0c3b7; stroke:none;" d="M41 43L44 48L42 44L46 44L41 43z"/>
<path style="fill:#7a9985; stroke:none;" d="M46.3333 43.6667L46.6667 44.3333L46.3333 43.6667z"/>
<path style="fill:#4f765c; stroke:none;" d="M17 44L18 45L17 44z"/>
<path style="fill:#fcfdfc; stroke:none;" d="M26 44L27 47L29 47L30 44L26 44M34 44L35 47L37 47L38 44L34 44M42 44L43 47L45 47L46 44L42 44z"/>
<path style="fill:#4f765c; stroke:none;" d="M50 44L51 45L50 44M21 45L22 46L21 45z"/>
<path style="fill:#7a9985; stroke:none;" d="M25 45L26 46L25 45M30 45L31 46L30 45z"/>
<path style="fill:#4f765c; stroke:none;" d="M38 45L39 46L38 45M46 45L47 46L46 45z"/>
<path style="fill:#7a9985; stroke:none;" d="M50 45L51 46L50 45z"/>
<path style="fill:#b0c3b7; stroke:none;" d="M53 45L54 46L53 45M18 46L19 47L18 46M21 46L22 47L21 46z"/>
<path style="fill:#7a9985; stroke:none;" d="M26 46L27 47L26 46M29 46L30 47L29 46M37 46L38 47L37 46M45 46L46 47L45 46z"/>
<path style="fill:#b0c3b7; stroke:none;" d="M50 46L51 47L50 46z"/>
<path style="fill:#7a9985; stroke:none;" d="M53 46L54 47L53 46M18 47L19 48L18 47z"/>
<path style="fill:#4f765c; stroke:none;" d="M22 47L23 48L22 47z"/>
<path style="fill:#7a9985; stroke:none;" d="M27.6667 47.3333L28.3333 47.6667L27.6667 47.3333M36 47L37 48L36 47M44 47L45 48L44 47z"/>
<path style="fill:#4f765c; stroke:none;" d="M49 47L50 48L49 47M18 48L19 49L18 48z"/>
<path style="fill:#b0c3b7; stroke:none;" d="M22 48L23 49L22 48M25 48L25 49L25 50L31 50L31 49L31 48L25 48z"/>
<path style="fill:#255333; stroke:none;" d="M27.6667 48.3333L28.3333 48.6667L27.6667 48.3333M35.6667 48.3333L36.3333 48.6667L35.6667 48.3333z"/>
<path style="fill:#7a9985; stroke:none;" d="M38.3333 48.6667L38.6667 49.3333L38.3333 48.6667z"/>
<path style="fill:#b0c3b7; stroke:none;" d="M41 48L41 49L41 50L46 49L46 48L41 48z"/>
<path style="fill:#7a9985; stroke:none;" d="M46.3333 48.6667L46.6667 49.3333L46.3333 48.6667z"/>
<path style="fill:#b0c3b7; stroke:none;" d="M49 48L50 49L49 48M52 48L53 49L52 48M19 49L20 50L19 49z"/>
<path style="fill:#4f765c; stroke:none;" d="M23 49L24 50L23 49z"/>
<path style="fill:#fcfdfc; stroke:none;" d="M26 49L27 52L29 52L30 49L26 49M34 49L35 52L37 52L38 49L34 49M42 49L43 52L45 52L46 49L42 49z"/>
<path style="fill:#4f765c; stroke:none;" d="M48 49L49 50L48 49M52 49L53 50L52 49z"/>
<path style="fill:#b0c3b7; stroke:none;" d="M23 50L24 51L23 50z"/>
<path style="fill:#7a9985; stroke:none;" d="M25 50L26 51L25 50M30 50L31 51L30 50M33 50L34 51L33 50z"/>
<path style="fill:#4f765c; stroke:none;" d="M38 50L39 51L38 50z"/>
<path style="fill:#7a9985; stroke:none;" d="M41 50L42 51L41 50z"/>
<path style="fill:#4f765c; stroke:none;" d="M46.6667 50.3333L47.3333 50.6667L46.6667 50.3333z"/>
<path style="fill:#b0c3b7; stroke:none;" d="M51 50L52 51L51 50z"/>
<path style="fill:#7a9985; stroke:none;" d="M20 51L21 52L20 51z"/>
<path style="fill:#b0c3b7; stroke:none;" d="M24 51L25 52L24 51z"/>
<path style="fill:#7a9985; stroke:none;" d="M26 51L27 52L26 51M29 51L30 52L29 51M34 51L35 52L34 51M37 51L38 52L37 51M42 51L43 52L42 51z"/>
<path style="fill:#4f765c; stroke:none;" d="M45 51L46 52L45 51z"/>
<path style="fill:#b0c3b7; stroke:none;" d="M47 51L48 52L47 51M21 52L22 53L21 52M25 52L26 53L25 52z"/>
<path style="fill:#7a9985; stroke:none;" d="M27.6667 52.3333L28.3333 52.6667L27.6667 52.3333M35.6667 52.3333L36.3333 52.6667L35.6667 52.3333M43 52L44 53L43 52z"/>
<path style="fill:#4f765c; stroke:none;" d="M44 52L45 53L44 52z"/>
<path style="fill:#b0c3b7; stroke:none;" d="M46 52L47 53L46 52z"/>
<path style="fill:#4f765c; stroke:none;" d="M50 52L51 53L50 52z"/>
<path style="fill:#b0c3b7; stroke:none;" d="M22 53L23 54L22 53M26 53L27 54L26 53M29 53L31 55L31 53L29 53M33 53L33 54L33 55L38 54L38 53L33 53z"/>
<path style="fill:#7a9985; stroke:none;" d="M38.3333 53.6667L38.6667 54.3333L38.3333 53.6667z"/>
<path style="fill:#b0c3b7; stroke:none;" d="M41 53L41 55L43 53L41 53M45 53L46 54L45 53z"/>
<path style="fill:#7a9985; stroke:none;" d="M49 53L50 54L49 53z"/>
<path style="fill:#b0c3b7; stroke:none;" d="M23 54L24 55L23 54M28 54L29 55L28 54z"/>
<path style="fill:#fcfdfc; stroke:none;" d="M34 54L35 57L37 57L38 54L34 54z"/>
<path style="fill:#b0c3b7; stroke:none;" d="M43 54L44 55L43 54M48 54L49 55L48 54M24 55L25 56L24 55z"/>
<path style="fill:#7a9985; stroke:none;" d="M30 55L31 56L30 55M33 55L34 56L33 55z"/>
<path style="fill:#4f765c; stroke:none;" d="M38 55L39 56L38 55z"/>
<path style="fill:#7a9985; stroke:none;" d="M41 55L42 56L41 55M47 55L48 56L47 55M25 56L26 57L25 56z"/>
<path style="fill:#4f765c; stroke:none;" d="M31 56L32 57L31 56z"/>
<path style="fill:#7a9985; stroke:none;" d="M34 56L35 57L34 56z"/>
<path style="fill:#4f765c; stroke:none;" d="M37 56L38 57L37 56z"/>
<path style="fill:#7a9985; stroke:none;" d="M40 56L41 57L40 56z"/>
<path style="fill:#4f765c; stroke:none;" d="M46 56L47 57L46 56M26 57L27 58L26 57z"/>
<path style="fill:#b0c3b7; stroke:none;" d="M27 57L28 58L27 57M32 57L33 58L32 57z"/>
<path style="fill:#4f765c; stroke:none;" d="M33 57L34 58L33 57z"/>
<path style="fill:#7a9985; stroke:none;" d="M35 57L35 59L37 59L35 57z"/>
<path style="fill:#4f765c; stroke:none;" d="M36 57L37 58L36 57M38 57L39 58L38 57z"/>
<path style="fill:#b0c3b7; stroke:none;" d="M39 57L40 58L39 57M44 57L45 58L44 57z"/>
<path style="fill:#4f765c; stroke:none;" d="M45 57L46 58L45 57z"/>
<path style="fill:#b0c3b7; stroke:none;" d="M28 58L29 59L28 58M34 58L35 59L34 58z"/>
<path style="fill:#7a9985; stroke:none;" d="M43 58L44 59L43 58z"/>
<path style="fill:#4f765c; stroke:none;" d="M29 59L30 60L29 59z"/>
<path style="fill:#b0c3b7; stroke:none;" d="M30 59L31 60L30 59M41 59L42 60L41 59z"/>
<path style="fill:#4f765c; stroke:none;" d="M31 60L32 61L31 60z"/>
<path style="fill:#b0c3b7; stroke:none;" d="M32 60L33 61L32 60M39 60L40 61L39 60z"/>
<path style="fill:#4f765c; stroke:none;" d="M40 60L41 61L40 60z"/>
<path style="fill:#7a9985; stroke:none;" d="M34 61L35 62L34 61z"/>
<path style="fill:#b0c3b7; stroke:none;" d="M36 61L37 62L36 61z"/>
<path style="fill:#7a9985; stroke:none;" d="M37 61L38 62L37 61z"/>
</svg>
